<svg id="Layer_1" data-name="Layer 1" xmlns="http://www.w3.org/2000/svg" viewBox="0 0 223.53 70.53"><defs><style>.cls-1{fill:#1d1d1d;}</style></defs><path class="cls-1" d="M26.17,27.3H15.29V69.52H7.84V27.3H0V21H7.84v-6.7c0-8.34,6.7-12.51,13.65-12.51A17.51,17.51,0,0,1,28.57,3L26.42,9.48a11.54,11.54,0,0,0-4.17-.76c-4.93,0-7,2.53-7,7.33V21H26.17Z"/><path class="cls-1" d="M42.65,69.52H35.19V4.8h7.46Z"/><path class="cls-1" d="M53.31,7.84a5.32,5.32,0,0,1,10.62,0,5.32,5.32,0,0,1-10.62,0ZM54.83,21h7.46V69.52H54.83Z"/><path class="cls-1" d="M71.85,45.51c0-14.79,8.72-25.16,21.86-25.16,10.24,0,18,6.07,19.22,15.17h-7.46c-1.14-4.42-5.06-8.47-11.63-8.47-8.72,0-14.54,7.21-14.54,18.2C79.3,56.5,85,63.83,93.84,63.83c5.81,0,10.24-3.16,11.63-8.47h7.46c-1.27,8.6-8.35,15.17-19.09,15.17C80.19,70.53,71.85,60,71.85,45.51Z"/><path class="cls-1" d="M122,4.8h7.46V42.6h.88L151.56,21h9.23L140.28,41.71l22,27.81h-9.48l-18.17-23-5.21,4.83V69.52H122Z"/><path class="cls-1" d="M168,21h17.45V69.52H168Zm.13-13c0-4.39,3.85-8,8.59-8s8.6,3.57,8.6,8-3.86,8-8.6,8S168.1,12.36,168.1,8Z"/><path class="cls-1" d="M222.65,33.62h-8.34V53.91c0,2,1,3,3.28,3a18.6,18.6,0,0,0,3.42-.5l2.52,12.26a35.68,35.68,0,0,1-8.46,1.52c-12,.66-18.33-4.49-18.21-14.67V33.62h-6.19V21h6.19V9.35h17.45V21h8.34Z"/></svg>